<svg width="313" height="24" viewBox="0 0 313 24" fill="none" xmlns="http://www.w3.org/2000/svg">
<path d="M0 12.1673L11.3521 23.4556V0.908283L0 12.1673Z" fill="url(#paint0_linear_166_41)"/>
<path d="M22.4838 23.6889L34.0731 12.1673L22.4838 0.645752V23.6889Z" fill="url(#paint1_linear_166_41)"/>
<path d="M46.4878 12.1673L57.8399 23.4556V0.908283L46.4878 12.1673Z" fill="url(#paint2_linear_166_41)"/>
<path d="M68.9717 23.6889L80.5609 12.1673L68.9717 0.645752V23.6889Z" fill="url(#paint3_linear_166_41)"/>
<path d="M92.9756 12.1673L104.328 23.4556V0.908283L92.9756 12.1673Z" fill="url(#paint4_linear_166_41)"/>
<path d="M115.459 23.6889L127.049 12.1673L115.459 0.645752V23.6889Z" fill="url(#paint5_linear_166_41)"/>
<path d="M139.463 12.1673L150.816 23.4556V0.908283L139.463 12.1673Z" fill="url(#paint6_linear_166_41)"/>
<path d="M161.947 23.6889L173.537 12.1673L161.947 0.645752V23.6889Z" fill="url(#paint7_linear_166_41)"/>
<path d="M185.951 12.1673L197.303 23.4556V0.908283L185.951 12.1673Z" fill="url(#paint8_linear_166_41)"/>
<path d="M208.435 23.6889L220.024 12.1673L208.435 0.645752V23.6889Z" fill="url(#paint9_linear_166_41)"/>
<path d="M232.439 12.1673L243.791 23.4556V0.908283L232.439 12.1673Z" fill="url(#paint10_linear_166_41)"/>
<path d="M254.923 23.6889L266.512 12.1673L254.923 0.645752V23.6889Z" fill="url(#paint11_linear_166_41)"/>
<path d="M278.927 12.1673L290.279 23.4556V0.908283L278.927 12.1673Z" fill="url(#paint12_linear_166_41)"/>
<path d="M301.411 23.6889L313 12.1673L301.411 0.645752V23.6889Z" fill="url(#paint13_linear_166_41)"/>
<defs>
<linearGradient id="paint0_linear_166_41" x1="-1.37948e-06" y1="12.6683" x2="313" y2="12.6683" gradientUnits="userSpaceOnUse">
<stop stop-color="#F5BD1E" stop-opacity="0"/>
<stop offset="0.453125" stop-color="#F5BD1E"/>
<stop offset="1" stop-color="#F5BD1E" stop-opacity="0"/>
</linearGradient>
<linearGradient id="paint1_linear_166_41" x1="-1.37948e-06" y1="12.6683" x2="313" y2="12.6683" gradientUnits="userSpaceOnUse">
<stop stop-color="#F5BD1E" stop-opacity="0"/>
<stop offset="0.453125" stop-color="#F5BD1E"/>
<stop offset="1" stop-color="#F5BD1E" stop-opacity="0"/>
</linearGradient>
<linearGradient id="paint2_linear_166_41" x1="-1.37948e-06" y1="12.6683" x2="313" y2="12.6683" gradientUnits="userSpaceOnUse">
<stop stop-color="#F5BD1E" stop-opacity="0"/>
<stop offset="0.453125" stop-color="#F5BD1E"/>
<stop offset="1" stop-color="#F5BD1E" stop-opacity="0"/>
</linearGradient>
<linearGradient id="paint3_linear_166_41" x1="-1.37948e-06" y1="12.6683" x2="313" y2="12.6683" gradientUnits="userSpaceOnUse">
<stop stop-color="#F5BD1E" stop-opacity="0"/>
<stop offset="0.453125" stop-color="#F5BD1E"/>
<stop offset="1" stop-color="#F5BD1E" stop-opacity="0"/>
</linearGradient>
<linearGradient id="paint4_linear_166_41" x1="-1.37948e-06" y1="12.6683" x2="313" y2="12.6683" gradientUnits="userSpaceOnUse">
<stop stop-color="#F5BD1E" stop-opacity="0"/>
<stop offset="0.453125" stop-color="#F5BD1E"/>
<stop offset="1" stop-color="#F5BD1E" stop-opacity="0"/>
</linearGradient>
<linearGradient id="paint5_linear_166_41" x1="-1.37948e-06" y1="12.6683" x2="313" y2="12.6683" gradientUnits="userSpaceOnUse">
<stop stop-color="#F5BD1E" stop-opacity="0"/>
<stop offset="0.453125" stop-color="#F5BD1E"/>
<stop offset="1" stop-color="#F5BD1E" stop-opacity="0"/>
</linearGradient>
<linearGradient id="paint6_linear_166_41" x1="-1.37948e-06" y1="12.6683" x2="313" y2="12.6683" gradientUnits="userSpaceOnUse">
<stop stop-color="#F5BD1E" stop-opacity="0"/>
<stop offset="0.453125" stop-color="#F5BD1E"/>
<stop offset="1" stop-color="#F5BD1E" stop-opacity="0"/>
</linearGradient>
<linearGradient id="paint7_linear_166_41" x1="-1.37948e-06" y1="12.6683" x2="313" y2="12.6683" gradientUnits="userSpaceOnUse">
<stop stop-color="#F5BD1E" stop-opacity="0"/>
<stop offset="0.453125" stop-color="#F5BD1E"/>
<stop offset="1" stop-color="#F5BD1E" stop-opacity="0"/>
</linearGradient>
<linearGradient id="paint8_linear_166_41" x1="-1.37948e-06" y1="12.6683" x2="313" y2="12.6683" gradientUnits="userSpaceOnUse">
<stop stop-color="#F5BD1E" stop-opacity="0"/>
<stop offset="0.453125" stop-color="#F5BD1E"/>
<stop offset="1" stop-color="#F5BD1E" stop-opacity="0"/>
</linearGradient>
<linearGradient id="paint9_linear_166_41" x1="-1.37948e-06" y1="12.6683" x2="313" y2="12.6683" gradientUnits="userSpaceOnUse">
<stop stop-color="#F5BD1E" stop-opacity="0"/>
<stop offset="0.453125" stop-color="#F5BD1E"/>
<stop offset="1" stop-color="#F5BD1E" stop-opacity="0"/>
</linearGradient>
<linearGradient id="paint10_linear_166_41" x1="-1.37948e-06" y1="12.6683" x2="313" y2="12.6683" gradientUnits="userSpaceOnUse">
<stop stop-color="#F5BD1E" stop-opacity="0"/>
<stop offset="0.453125" stop-color="#F5BD1E"/>
<stop offset="1" stop-color="#F5BD1E" stop-opacity="0"/>
</linearGradient>
<linearGradient id="paint11_linear_166_41" x1="-1.37948e-06" y1="12.6683" x2="313" y2="12.6683" gradientUnits="userSpaceOnUse">
<stop stop-color="#F5BD1E" stop-opacity="0"/>
<stop offset="0.453125" stop-color="#F5BD1E"/>
<stop offset="1" stop-color="#F5BD1E" stop-opacity="0"/>
</linearGradient>
<linearGradient id="paint12_linear_166_41" x1="-1.37948e-06" y1="12.6683" x2="313" y2="12.6683" gradientUnits="userSpaceOnUse">
<stop stop-color="#F5BD1E" stop-opacity="0"/>
<stop offset="0.453125" stop-color="#F5BD1E"/>
<stop offset="1" stop-color="#F5BD1E" stop-opacity="0"/>
</linearGradient>
<linearGradient id="paint13_linear_166_41" x1="-1.37948e-06" y1="12.6683" x2="313" y2="12.6683" gradientUnits="userSpaceOnUse">
<stop stop-color="#F5BD1E" stop-opacity="0"/>
<stop offset="0.453125" stop-color="#F5BD1E"/>
<stop offset="1" stop-color="#F5BD1E" stop-opacity="0"/>
</linearGradient>
</defs>
</svg>
