<svg width="91" height="92" viewBox="0 0 91 92" fill="none" xmlns="http://www.w3.org/2000/svg">
<g id="fi_3059561">
<g id="Layer 3">
<path id="Vector" d="M45.5 3.51074C37.0634 3.51074 28.8162 6.01249 21.8014 10.6996C14.7867 15.3867 9.3193 22.0487 6.09075 29.8432C2.8622 37.6376 2.01747 46.2143 3.66337 54.4888C5.30927 62.7633 9.37188 70.3639 15.3375 76.3295C21.303 82.2951 28.9037 86.3577 37.1782 88.0036C45.4527 89.6495 54.0294 88.8048 61.8238 85.5762C69.6182 82.3477 76.2802 76.8803 80.9674 69.8655C85.6545 62.8507 88.1562 54.6036 88.1562 46.167C88.1562 34.8539 83.6621 24.0041 75.6625 16.0045C67.6629 8.00487 56.8131 3.51074 45.5 3.51074ZM47.3285 29.7131C51.206 29.7176 54.9234 31.2599 57.6653 34.0017C60.4071 36.7435 61.9494 40.4609 61.9539 44.3385H58.2969C58.2939 41.4304 57.1373 38.6423 55.081 36.586C53.0247 34.5297 50.2366 33.3731 47.3285 33.3701V29.7131ZM59.1727 71.7607C59.0618 71.7607 48.0821 71.5731 33.9629 57.7041C20.0939 43.5906 19.9062 32.6052 19.9062 32.4942C19.9062 31.1264 28.4375 20.5732 30.3229 20.5732C30.977 20.5732 31.486 21.0169 32.0434 21.6823C33.3856 23.2805 39.3205 32.6478 39.0475 34.209C38.9167 34.9427 38.2939 35.5001 36.5081 36.9987C35.6281 37.6905 34.8046 38.4513 34.0454 39.2737C34.409 40.7787 34.9492 42.2353 35.6549 43.6133C38.2841 49.0191 42.6524 53.3854 48.0594 56.0121C49.4374 56.7178 50.894 57.258 52.3989 57.6216C53.2214 56.8624 53.9822 56.0389 54.6739 55.1589C56.1726 53.3731 56.73 52.7503 57.4636 52.6195C59.0249 52.3351 68.3922 58.2814 69.9904 59.6236C70.6558 60.1924 71.0994 60.69 71.0994 61.3441C71.0937 63.2295 60.5406 71.7607 59.1727 71.7607ZM67.4367 44.3385C67.4307 39.0073 65.3102 33.8962 61.5405 30.1265C57.7708 26.3568 52.6597 24.2363 47.3285 24.2303V20.5732C53.6291 20.5808 59.6695 23.087 64.1248 27.5422C68.58 31.9974 71.0862 38.0378 71.0937 44.3385H67.4367Z" fill="white"/>
</g>
</g>
</svg>
