<svg width="90" height="91" viewBox="0 0 90 91" fill="none" xmlns="http://www.w3.org/2000/svg">
<g id="fi_5616461" clip-path="url(#clip0_55_586)">
<g id="&#229;&#155;&#190;&#229;&#177;&#130;_x0020_1">
<path id="Vector" fill-rule="evenodd" clip-rule="evenodd" d="M45 90.8333C20.1511 90.8333 0 70.6821 0 45.8333C0 20.9844 20.1511 0.833252 45 0.833252C69.8489 0.833252 90 20.9844 90 45.8333C90 70.6821 69.8489 90.8333 45 90.8333ZM45 16.5634C57.3102 16.5634 67.2892 26.5424 67.2892 38.8526C67.2892 51.1624 45 75.1027 45 75.1027C45 75.1027 22.7108 51.1624 22.7108 38.8526C22.7108 26.5424 32.6898 16.5634 45 16.5634ZM45 29.9968C49.6672 29.9968 53.4522 33.7818 53.4522 38.4494C53.4522 43.1166 49.6672 46.9016 45 46.9016C40.3328 46.9016 36.5478 43.1166 36.5478 38.4494C36.5478 33.7818 40.3328 29.9968 45 29.9968Z" fill="white"/>
</g>
</g>
<defs>
<clipPath id="clip0_55_586">
<rect width="90" height="90" fill="white" transform="translate(0 0.833252)"/>
</clipPath>
</defs>
</svg>
