<svg width="90" height="91" viewBox="0 0 90 91" fill="none" xmlns="http://www.w3.org/2000/svg">
<g id="fi_6244710" clip-path="url(#clip0_55_583)">
<path id="Vector" fill-rule="evenodd" clip-rule="evenodd" d="M45 0.5C69.8528 0.5 90 20.6472 90 45.5C90 70.3528 69.8528 90.5 45 90.5C20.1472 90.5 0 70.3528 0 45.5C0 20.6472 20.1472 0.5 45 0.5ZM73.5645 62.9447V29.5L56.8412 46.2223L73.5645 62.9447ZM20.0081 63.626H69.9929L54.7161 48.3492L48.8937 54.1708C48.6114 54.4523 48.229 54.6104 47.8303 54.6102H42.1701C41.9726 54.6104 41.7771 54.5717 41.5946 54.4963C41.4121 54.4209 41.2462 54.3103 41.1064 54.1708L35.2842 48.3492L20.0074 63.626H20.0081ZM16.4355 29.499V62.9456L33.1588 46.2223L16.4355 29.499ZM71.4386 27.374H18.5625L42.7929 51.6044H47.208L71.4386 27.374Z" fill="white"/>
</g>
<defs>
<clipPath id="clip0_55_583">
<rect width="90" height="90" fill="white" transform="translate(0 0.5)"/>
</clipPath>
</defs>
</svg>
